<svg width="770" height="734" viewBox="0 0 770 734" fill="none" xmlns="http://www.w3.org/2000/svg">
<ellipse cx="385" cy="367" rx="385" ry="367" fill="#060606"/>
<path d="M405.417 280.375C405.417 274.971 403.27 269.789 399.449 265.968C395.628 262.147 390.445 260 385.042 260C379.638 260 374.455 262.147 370.634 265.968C366.813 269.789 364.667 274.971 364.667 280.375V368.667H276.375C270.971 368.667 265.789 370.813 261.968 374.634C258.147 378.455 256 383.638 256 389.042C256 394.445 258.147 399.628 261.968 403.449C265.789 407.27 270.971 409.417 276.375 409.417H364.667V497.708C364.667 503.112 366.813 508.295 370.634 512.116C374.455 515.937 379.638 518.083 385.042 518.083C390.445 518.083 395.628 515.937 399.449 512.116C403.27 508.295 405.417 503.112 405.417 497.708V409.417H493.708C499.112 409.417 504.295 407.27 508.116 403.449C511.937 399.628 514.083 394.445 514.083 389.042C514.083 383.638 511.937 378.455 508.116 374.634C504.295 370.813 499.112 368.667 493.708 368.667H405.417V280.375Z" fill="white"/>
</svg>
