<svg width="50" height="50" viewBox="0 0 50 50" fill="none" xmlns="http://www.w3.org/2000/svg">
<path fill-rule="evenodd" clip-rule="evenodd" d="M27.7778 0C28.189 0 28.5833 0.163344 28.8741 0.454098C29.1648 0.744852 29.3282 1.1392 29.3282 1.55039V24.2336L32.801 20.1798C32.9335 20.0251 33.0952 19.898 33.2768 19.8057C33.4584 19.7135 33.6564 19.6579 33.8595 19.6421C34.0625 19.6264 34.2667 19.6508 34.4604 19.714C34.6541 19.7772 34.8334 19.8779 34.9881 20.0103C35.1428 20.1428 35.27 20.3045 35.3622 20.4861C35.4545 20.6677 35.5101 20.8657 35.5258 21.0688C35.5416 21.2719 35.5171 21.4761 35.454 21.6697C35.3908 21.8634 35.2901 22.0427 35.1576 22.1974L28.9561 29.4326C28.8105 29.6028 28.6298 29.7394 28.4264 29.8331C28.223 29.9268 28.0017 29.9753 27.7778 29.9753C27.5538 29.9753 27.3325 29.9268 27.1291 29.8331C26.9257 29.7394 26.745 29.6028 26.5995 29.4326L20.3979 22.1974C20.2654 22.0427 20.1647 21.8634 20.1016 21.6697C20.0384 21.4761 20.014 21.2719 20.0297 21.0688C20.0455 20.8657 20.101 20.6677 20.1933 20.4861C20.2856 20.3045 20.4127 20.1428 20.5674 20.0103C20.7222 19.8779 20.9015 19.7772 21.0951 19.714C21.2888 19.6508 21.493 19.6264 21.6961 19.6421C21.8992 19.6579 22.0972 19.7135 22.2788 19.8057C22.4604 19.898 22.622 20.0251 22.7545 20.1798L26.2274 24.2315V1.55039C26.2274 1.1392 26.3907 0.744852 26.6815 0.454098C26.9722 0.163344 27.3666 0 27.7778 0ZM17.4336 14.4744C17.8448 14.4722 18.24 14.6335 18.5323 14.9227C18.8246 15.2119 18.99 15.6053 18.9922 16.0165C18.9944 16.4277 18.8332 16.8229 18.544 17.1152C18.2548 17.4076 17.8613 17.573 17.4501 17.5752C15.1907 17.5876 13.5886 17.6455 12.371 17.8687C11.201 18.0858 10.5209 18.431 10.0186 18.9333C9.44598 19.5059 9.07389 20.3101 8.86924 21.8274C8.66045 23.3881 8.65632 25.4574 8.65632 28.4238V30.491C8.65632 33.4594 8.66045 35.5287 8.86924 37.0894C9.07389 38.6067 9.44805 39.4088 10.0186 39.9835C10.5912 40.554 11.3933 40.9261 12.9126 41.1307C14.4713 41.3416 16.5426 41.3437 19.509 41.3437H36.0465C39.0129 41.3437 41.0822 41.3416 42.6449 41.1307C44.1623 40.9261 44.9643 40.554 45.5369 39.9814C46.1095 39.4088 46.4816 38.6067 46.6863 37.0894C46.8951 35.5287 46.8992 33.4594 46.8992 30.491V28.4238C46.8992 25.4574 46.8951 23.3881 46.6863 21.8253C46.4816 20.3101 46.1075 19.5059 45.5369 18.9333C45.0325 18.431 44.3545 18.0858 43.1845 17.8687C41.9669 17.6455 40.3648 17.5876 38.1054 17.5752C37.9018 17.5741 37.7004 17.5329 37.5127 17.454C37.325 17.3751 37.1547 17.26 37.0115 17.1152C36.8683 16.9705 36.7551 16.799 36.6781 16.6105C36.6012 16.422 36.5622 16.2201 36.5633 16.0165C36.5644 15.8129 36.6056 15.6115 36.6845 15.4239C36.7634 15.2362 36.8785 15.0659 37.0232 14.9227C37.168 14.7795 37.3395 14.6662 37.528 14.5893C37.7165 14.5124 37.9184 14.4733 38.122 14.4744C40.3586 14.4868 42.2212 14.5406 43.7447 14.8196C45.3116 15.109 46.6449 15.6568 47.7302 16.7421C48.9747 17.9845 49.508 19.5535 49.7602 21.414C50 23.2041 50 25.4842 50 28.3101V30.6047C50 33.4326 50 35.7106 49.7602 37.5028C49.508 39.3633 48.9747 40.9302 47.7302 42.1747C46.4858 43.4191 44.9189 43.9525 43.0584 44.2047C41.2661 44.4444 38.986 44.4444 36.1602 44.4444H19.3953C16.5695 44.4444 14.2894 44.4444 12.4971 44.2047C10.6367 43.9545 9.06975 43.4191 7.82531 42.1747C6.58087 40.9302 6.04753 39.3633 5.7974 37.5028C5.55554 35.7106 5.55554 33.4305 5.55554 30.6047V28.3101C5.55554 25.4842 5.55554 23.2041 5.7974 21.4119C6.04546 19.5514 6.58293 17.9845 7.82531 16.7401C8.91058 15.6568 10.2439 15.107 11.8108 14.8196C13.3344 14.5406 15.1969 14.4868 17.4336 14.4744Z" fill="white"/>
</svg>
