<svg width="392" height="392" viewBox="0 0 392 392" fill="none" xmlns="http://www.w3.org/2000/svg">
<path d="M106.9 18.0405C105.691 18.0467 104.491 18.0803 103.287 18.1362L234.783 215.739H346.755C358.508 202.795 368.097 188.74 374.081 172.435H299.91C294.308 186.346 280.665 196.241 264.81 196.241C244.005 196.241 227.007 179.218 227.007 158.413C227.007 149.658 230.031 141.586 235.069 135.157L197.435 75.7028C197.412 75.7434 197.387 75.7817 197.363 75.8222C196.466 74.2745 195.54 72.743 194.588 71.2285C171.538 34.4127 138.483 17.869 106.901 18.0421L106.9 18.0405ZM281.965 20.074C254.507 20.3252 226.344 33.8982 204.805 64.2161H361.089C342.347 36.0863 312.599 19.7915 281.964 20.0748L281.965 20.074ZM87.5217 20.2654C78.7208 22.2744 70.2339 25.6302 62.351 30.2186C70.5217 37.1704 75.7265 47.5217 75.7265 59.0244C75.7265 68.7632 71.9956 77.6674 65.8928 84.3858L98.9578 135.92H164.491L87.5217 20.2654ZM37.8985 35.5052C24.8262 35.5052 14.3785 45.9522 14.3785 59.0252C14.3785 72.0967 24.8262 82.5192 37.8985 82.5192C50.9707 82.5192 61.4185 72.0975 61.4185 59.0252C61.4185 45.9529 50.9707 35.5052 37.8985 35.5052ZM216.17 78.5241L246.006 125.633C251.72 122.324 258.207 120.583 264.81 120.585C285.52 120.585 302.481 137.452 302.637 158.124H378.243C380.214 149.084 381.119 139.374 380.804 128.839C380.241 110.039 376.028 93.1147 369.151 78.5234H216.171L216.17 78.5241ZM17.5129 90.8216C14.4351 102.321 12.9307 115.031 13.351 128.839C13.4237 131.246 13.5753 133.598 13.7813 135.922H81.9701L54.4306 93.0006C49.2846 95.5227 43.6292 96.8322 37.8985 96.8287C30.403 96.8287 23.4082 94.6183 17.5137 90.8224L17.5129 90.8216ZM264.81 134.893C251.738 134.893 241.315 145.339 241.315 158.412C241.315 171.484 251.738 181.932 264.811 181.932C277.883 181.932 288.331 171.484 288.331 158.412C288.331 145.339 277.883 134.892 264.811 134.892L264.81 134.893ZM15.9587 150.229C18.7862 163.197 23.7581 174.884 30.3142 185.712H150.493L152.598 189.037L212.055 282.922L219.016 293.904H162.481C161.423 299.148 159.261 304.107 156.14 308.451C173.109 327.257 187.787 348.702 197.364 374.869C224.28 305.24 287.808 271.608 332.545 230.047H227.104L224.975 226.839L173.989 150.23H15.9587V150.229ZM40.1953 200.02C56.4212 220.868 78.3204 238.886 100.919 257.681C107.529 252.051 116.085 248.637 125.395 248.637C143.859 248.637 159.349 262.038 162.6 279.597H193.011L142.621 200.02H40.1953ZM125.394 262.945C112.323 262.945 101.876 273.391 101.876 286.463C101.876 299.536 112.323 309.983 125.396 309.983C138.467 309.983 148.89 299.536 148.89 286.463C148.89 273.391 138.466 262.943 125.393 262.943L125.394 262.945Z" fill="black"/>
</svg>
