<svg width="357" height="357" viewBox="0 0 357 357" fill="none" xmlns="http://www.w3.org/2000/svg">
<path d="M44.625 256.594V312.375H100.406L264.924 147.709L209.143 91.9275L44.625 256.594ZM336.324 273.105L273.105 336.324L195.755 258.974L222.084 232.645L236.959 247.52L273.7 210.63L294.823 231.753L273.105 252.875L288.873 267.75L309.995 246.925L336.324 273.105ZM98.3238 161.096L20.6763 83.895L83.895 20.6763L110.075 47.005L73.3338 83.895L89.25 99.6625L125.843 62.7725L146.965 83.895L125.843 104.869L140.718 119.744L98.3238 161.096ZM308.061 104.125C313.863 98.3238 313.863 89.25 308.061 83.1513L273.254 48.9388C267.75 43.1375 258.081 43.1375 252.28 48.9388L224.91 76.16L280.691 131.941L308.061 104.125Z" fill="black"/>
</svg>
