<svg width="183" height="51" viewBox="0 0 183 51" fill="none" xmlns="http://www.w3.org/2000/svg">
<path d="M11.3022 50H0.591974L24.7592 2.72727H37.6392L46.0874 50H35.3771L29.6296 13.5298H29.2603L11.3022 50ZM13.7489 31.4187H39.0472L37.7085 39.2205H12.4102L13.7489 31.4187ZM75.956 14.5455L74.7326 21.9318H52.8505L54.0739 14.5455H75.956ZM53.1506 50L59.4982 11.9833C59.9137 9.41347 60.7601 7.28219 62.0373 5.58949C63.3299 3.89678 64.9226 2.62725 66.8153 1.78089C68.7235 0.934538 70.7855 0.51136 73.0014 0.51136C74.5095 0.51136 75.8713 0.626773 77.087 0.857599C78.3181 1.08842 79.2106 1.29616 79.7646 1.48082L76.8331 8.86719C76.4638 8.74408 76.0098 8.62867 75.4712 8.52095C74.9326 8.41323 74.3633 8.35938 73.7631 8.35938C72.332 8.35938 71.2779 8.69792 70.6009 9.375C69.9392 10.0367 69.4929 10.9677 69.2621 12.168L62.9606 50H53.1506ZM101.029 14.5455L99.8058 21.9318H77.9237L79.1471 14.5455H101.029ZM78.2238 50L84.5715 11.9833C84.9869 9.41347 85.8333 7.28219 87.1105 5.58949C88.4031 3.89678 89.9958 2.62725 91.8886 1.78089C93.7967 0.934538 95.8588 0.51136 98.0747 0.51136C99.5827 0.51136 100.945 0.626773 102.16 0.857599C103.391 1.08842 104.284 1.29616 104.838 1.48082L101.906 8.86719C101.537 8.74408 101.083 8.62867 100.544 8.52095C100.006 8.41323 99.4365 8.35938 98.8364 8.35938C97.4053 8.35938 96.3512 8.69792 95.6741 9.375C95.0124 10.0367 94.5661 10.9677 94.3353 12.168L88.0338 50H78.2238ZM109.852 50.6694C107.606 50.6694 105.659 50.277 104.013 49.4922C102.381 48.692 101.181 47.5071 100.412 45.9375C99.6423 44.3679 99.45 42.4213 99.8347 40.0977C100.173 38.128 100.812 36.4814 101.751 35.158C102.705 33.8192 103.866 32.7421 105.236 31.9265C106.606 31.1109 108.121 30.4877 109.783 30.0568C111.461 29.6259 113.192 29.3336 114.977 29.1797C117.039 28.9643 118.716 28.7565 120.009 28.5565C121.317 28.3564 122.294 28.0717 122.94 27.7024C123.586 27.3177 123.979 26.7483 124.117 25.9943V25.8558C124.348 24.4093 124.079 23.286 123.309 22.4858C122.555 21.6702 121.347 21.2624 119.686 21.2624C117.931 21.2624 116.439 21.6471 115.208 22.4165C113.992 23.186 113.122 24.1631 112.599 25.348L103.643 24.6094C104.443 22.455 105.651 20.593 107.267 19.0234C108.898 17.4384 110.86 16.2228 113.153 15.3764C115.446 14.5147 118.016 14.0838 120.863 14.0838C122.832 14.0838 124.671 14.3146 126.379 14.7763C128.103 15.2379 129.588 15.9535 130.834 16.9229C132.096 17.8924 133.004 19.1388 133.558 20.6623C134.127 22.1703 134.243 23.9785 133.904 26.0866L129.911 50H120.586L121.417 45.0835H121.14C120.386 46.1914 119.462 47.1686 118.37 48.0149C117.277 48.8459 116.023 49.4999 114.607 49.9769C113.192 50.4386 111.607 50.6694 109.852 50.6694ZM113.8 43.8832C115.231 43.8832 116.546 43.5985 117.747 43.0291C118.962 42.4444 119.963 41.6596 120.747 40.6747C121.548 39.6899 122.055 38.5742 122.271 37.3278L122.871 33.5653C122.563 33.7654 122.117 33.9424 121.532 34.0962C120.963 34.2501 120.34 34.3963 119.662 34.5348C119.001 34.6579 118.331 34.7733 117.654 34.881C116.977 34.9734 116.369 35.0657 115.831 35.158C114.646 35.3273 113.584 35.5966 112.645 35.9659C111.707 36.3352 110.945 36.8353 110.36 37.4663C109.776 38.0818 109.414 38.8512 109.275 39.7745C109.06 41.1133 109.375 42.1366 110.222 42.8445C111.084 43.5369 112.276 43.8832 113.8 43.8832ZM137.54 50L143.449 14.5455H153.282L147.373 50H137.54ZM149.381 9.92897C147.919 9.92897 146.711 9.44425 145.757 8.47479C144.818 7.48994 144.434 6.32043 144.603 4.96626C144.772 3.58132 145.434 2.41181 146.588 1.45774C147.742 0.488279 149.05 0.00354797 150.512 0.00354797C151.974 0.00354797 153.167 0.488279 154.09 1.45774C155.013 2.41181 155.398 3.58132 155.244 4.96626C155.09 6.32043 154.436 7.48994 153.282 8.47479C152.143 9.44425 150.843 9.92897 149.381 9.92897ZM155.25 50L161.159 14.5455H170.692L169.653 20.7315H170.022C171.038 18.531 172.4 16.8691 174.108 15.7457C175.832 14.607 177.686 14.0376 179.671 14.0376C180.163 14.0376 180.679 14.0684 181.217 14.13C181.771 14.1761 182.264 14.2531 182.695 14.3608L181.217 23.109C180.787 22.9551 180.171 22.832 179.371 22.7397C178.586 22.632 177.84 22.5781 177.132 22.5781C175.701 22.5781 174.37 22.8936 173.139 23.5245C171.908 24.14 170.869 25.0018 170.022 26.1097C169.191 27.2177 168.645 28.4949 168.384 29.9414L165.083 50H155.25Z" fill="url(#paint0_linear_20_3)"/>
<defs>
<linearGradient id="paint0_linear_20_3" x1="-20.6446" y1="27" x2="180.897" y2="39.2027" gradientUnits="userSpaceOnUse">
<stop stop-color="#4555D2"/>
<stop offset="1" stop-color="#CC2973"/>
</linearGradient>
</defs>
</svg>
