<svg width="257" height="40" viewBox="0 0 257 40" fill="none" xmlns="http://www.w3.org/2000/svg">
<path d="M0.514 39L17.362 1.2H26.002L42.904 39H33.724L19.9 5.628H23.356L9.478 39H0.514ZM8.938 30.9L11.26 24.258H30.7L33.076 30.9H8.938ZM46.8258 39V1.2H63.1878C66.5718 1.2 69.4878 1.758 71.9358 2.874C74.3838 3.954 76.2738 5.52 77.6058 7.572C78.9378 9.624 79.6038 12.072 79.6038 14.916C79.6038 17.724 78.9378 20.154 77.6058 22.206C76.2738 24.222 74.3838 25.77 71.9358 26.85C69.4878 27.93 66.5718 28.47 63.1878 28.47H51.6858L55.5738 24.636V39H46.8258ZM70.8557 39L61.4058 25.284H70.7478L80.3058 39H70.8557ZM55.5738 25.608L51.6858 21.504H62.7018C65.4018 21.504 67.4178 20.928 68.7498 19.776C70.0818 18.588 70.7478 16.968 70.7478 14.916C70.7478 12.828 70.0818 11.208 68.7498 10.056C67.4178 8.904 65.4018 8.328 62.7018 8.328H51.6858L55.5738 4.17V25.608ZM93.8374 39V8.328H81.7414V1.2H114.681V8.328H102.585V39H93.8374ZM127.434 16.428H145.632V23.232H127.434V16.428ZM128.082 31.98H148.656V39H119.388V1.2H147.954V8.22H128.082V31.98ZM173.707 39.648C170.791 39.648 168.073 39.18 165.553 38.244C163.069 37.272 160.909 35.904 159.073 34.14C157.237 32.376 155.797 30.306 154.753 27.93C153.745 25.554 153.241 22.944 153.241 20.1C153.241 17.256 153.745 14.646 154.753 12.27C155.797 9.894 157.237 7.824 159.073 6.06C160.945 4.296 163.123 2.946 165.607 2.01C168.091 1.038 170.809 0.551999 173.761 0.551999C177.037 0.551999 179.989 1.128 182.617 2.28C185.281 3.396 187.513 5.052 189.313 7.248L183.697 12.432C182.401 10.956 180.961 9.858 179.377 9.138C177.793 8.382 176.065 8.004 174.193 8.004C172.429 8.004 170.809 8.292 169.333 8.868C167.857 9.444 166.579 10.272 165.499 11.352C164.419 12.432 163.573 13.71 162.961 15.186C162.385 16.662 162.097 18.3 162.097 20.1C162.097 21.9 162.385 23.538 162.961 25.014C163.573 26.49 164.419 27.768 165.499 28.848C166.579 29.928 167.857 30.756 169.333 31.332C170.809 31.908 172.429 32.196 174.193 32.196C176.065 32.196 177.793 31.836 179.377 31.116C180.961 30.36 182.401 29.226 183.697 27.714L189.313 32.898C187.513 35.094 185.281 36.768 182.617 37.92C179.989 39.072 177.019 39.648 173.707 39.648ZM202.681 39V8.328H190.585V1.2H223.525V8.328H211.429V39H202.681ZM240.388 39.648C237.364 39.648 234.466 39.252 231.694 38.46C228.922 37.632 226.69 36.57 224.998 35.274L227.968 28.686C229.588 29.838 231.496 30.792 233.692 31.548C235.924 32.268 238.174 32.628 240.442 32.628C242.17 32.628 243.556 32.466 244.6 32.142C245.68 31.782 246.472 31.296 246.976 30.684C247.48 30.072 247.732 29.37 247.732 28.578C247.732 27.57 247.336 26.778 246.544 26.202C245.752 25.59 244.708 25.104 243.412 24.744C242.116 24.348 240.676 23.988 239.092 23.664C237.544 23.304 235.978 22.872 234.394 22.368C232.846 21.864 231.424 21.216 230.128 20.424C228.832 19.632 227.77 18.588 226.942 17.292C226.15 15.996 225.754 14.34 225.754 12.324C225.754 10.164 226.33 8.202 227.482 6.438C228.67 4.638 230.434 3.216 232.774 2.172C235.15 1.092 238.12 0.551999 241.684 0.551999C244.06 0.551999 246.4 0.839999 248.704 1.416C251.008 1.956 253.042 2.784 254.806 3.9L252.106 10.542C250.342 9.534 248.578 8.796 246.814 8.328C245.05 7.824 243.322 7.572 241.63 7.572C239.938 7.572 238.552 7.77 237.472 8.166C236.392 8.562 235.618 9.084 235.15 9.732C234.682 10.344 234.448 11.064 234.448 11.892C234.448 12.864 234.844 13.656 235.636 14.268C236.428 14.844 237.472 15.312 238.768 15.672C240.064 16.032 241.486 16.392 243.034 16.752C244.618 17.112 246.184 17.526 247.732 17.994C249.316 18.462 250.756 19.092 252.052 19.884C253.348 20.676 254.392 21.72 255.184 23.016C256.012 24.312 256.426 25.95 256.426 27.93C256.426 30.054 255.832 31.998 254.644 33.762C253.456 35.526 251.674 36.948 249.298 38.028C246.958 39.108 243.988 39.648 240.388 39.648Z" fill="black"/>
</svg>
