<svg width="295" height="54" viewBox="0 0 295 54" fill="none" xmlns="http://www.w3.org/2000/svg">
<path d="M11.24 23.74H34.83V32.56H11.24V23.74ZM12.08 43.9H38.75V53H0.81V4H37.84V13.1H12.08V43.9ZM64.1529 53.35C60.5129 53.35 57.2462 52.5567 54.3529 50.97C51.5062 49.3367 49.2662 47.12 47.6329 44.32C45.9996 41.4733 45.1829 38.23 45.1829 34.59C45.1829 30.9033 45.9996 27.66 47.6329 24.86C49.2662 22.06 51.5062 19.8667 54.3529 18.28C57.2462 16.6933 60.5129 15.9 64.1529 15.9C67.2796 15.9 70.1029 16.5067 72.6229 17.72C75.1429 18.9333 77.1262 20.7533 78.5729 23.18L74.8629 25.7C73.6029 23.8333 72.0396 22.4567 70.1729 21.57C68.3062 20.6833 66.2762 20.24 64.0829 20.24C61.4696 20.24 59.1129 20.8467 57.0129 22.06C54.9129 23.2267 53.2562 24.8833 52.0429 27.03C50.8296 29.1767 50.2229 31.6967 50.2229 34.59C50.2229 37.4833 50.8296 40.0033 52.0429 42.15C53.2562 44.2967 54.9129 45.9767 57.0129 47.19C59.1129 48.3567 61.4696 48.94 64.0829 48.94C66.2762 48.94 68.3062 48.4967 70.1729 47.61C72.0396 46.7233 73.6029 45.37 74.8629 43.55L78.5729 46.07C77.1262 48.45 75.1429 50.27 72.6229 51.53C70.1029 52.7433 67.2796 53.35 64.1529 53.35ZM102.701 53.35C99.1544 53.35 95.9577 52.5567 93.111 50.97C90.311 49.3367 88.0943 47.12 86.461 44.32C84.8277 41.4733 84.011 38.23 84.011 34.59C84.011 30.9033 84.8277 27.66 86.461 24.86C88.0943 22.06 90.311 19.8667 93.111 18.28C95.911 16.6933 99.1077 15.9 102.701 15.9C106.341 15.9 109.561 16.6933 112.361 18.28C115.208 19.8667 117.424 22.06 119.011 24.86C120.644 27.66 121.461 30.9033 121.461 34.59C121.461 38.23 120.644 41.4733 119.011 44.32C117.424 47.12 115.208 49.3367 112.361 50.97C109.514 52.5567 106.294 53.35 102.701 53.35ZM102.701 48.94C105.361 48.94 107.718 48.3567 109.771 47.19C111.824 45.9767 113.434 44.2967 114.601 42.15C115.814 39.9567 116.421 37.4367 116.421 34.59C116.421 31.6967 115.814 29.1767 114.601 27.03C113.434 24.8833 111.824 23.2267 109.771 22.06C107.718 20.8467 105.384 20.24 102.771 20.24C100.158 20.24 97.8244 20.8467 95.771 22.06C93.7177 23.2267 92.0843 24.8833 90.871 27.03C89.6577 29.1767 89.051 31.6967 89.051 34.59C89.051 37.4367 89.6577 39.9567 90.871 42.15C92.0843 44.2967 93.7177 45.9767 95.771 47.19C97.8244 48.3567 100.134 48.94 102.701 48.94ZM150.368 15.9C153.354 15.9 155.968 16.4833 158.208 17.65C160.494 18.77 162.268 20.4967 163.528 22.83C164.834 25.1633 165.488 28.1033 165.488 31.65V53H160.518V32.14C160.518 28.2667 159.538 25.35 157.578 23.39C155.664 21.3833 152.958 20.38 149.458 20.38C146.844 20.38 144.558 20.9167 142.598 21.99C140.684 23.0167 139.191 24.5333 138.118 26.54C137.091 28.5 136.578 30.88 136.578 33.68V53H131.608V16.25H136.368V26.33L135.598 24.44C136.764 21.78 138.631 19.7033 141.198 18.21C143.764 16.67 146.821 15.9 150.368 15.9ZM179.752 53V11.63C179.752 8.36333 180.709 5.72666 182.622 3.72C184.536 1.71333 187.289 0.709997 190.882 0.709997C192.282 0.709997 193.636 0.896664 194.942 1.27C196.249 1.64333 197.346 2.22667 198.232 3.02L196.552 6.73C195.852 6.12333 195.036 5.68 194.102 5.4C193.169 5.07333 192.166 4.91 191.092 4.91C188.992 4.91 187.382 5.49333 186.262 6.66C185.142 7.82666 184.582 9.55333 184.582 11.84V17.44L184.722 19.75V53H179.752ZM173.172 20.38V16.25H195.922V20.38H173.172ZM216.998 53.35C213.451 53.35 210.255 52.5567 207.408 50.97C204.608 49.3367 202.391 47.12 200.758 44.32C199.125 41.4733 198.308 38.23 198.308 34.59C198.308 30.9033 199.125 27.66 200.758 24.86C202.391 22.06 204.608 19.8667 207.408 18.28C210.208 16.6933 213.405 15.9 216.998 15.9C220.638 15.9 223.858 16.6933 226.658 18.28C229.505 19.8667 231.721 22.06 233.308 24.86C234.941 27.66 235.758 30.9033 235.758 34.59C235.758 38.23 234.941 41.4733 233.308 44.32C231.721 47.12 229.505 49.3367 226.658 50.97C223.811 52.5567 220.591 53.35 216.998 53.35ZM216.998 48.94C219.658 48.94 222.015 48.3567 224.068 47.19C226.121 45.9767 227.731 44.2967 228.898 42.15C230.111 39.9567 230.718 37.4367 230.718 34.59C230.718 31.6967 230.111 29.1767 228.898 27.03C227.731 24.8833 226.121 23.2267 224.068 22.06C222.015 20.8467 219.681 20.24 217.068 20.24C214.455 20.24 212.121 20.8467 210.068 22.06C208.015 23.2267 206.381 24.8833 205.168 27.03C203.955 29.1767 203.348 31.6967 203.348 34.59C203.348 37.4367 203.955 39.9567 205.168 42.15C206.381 44.2967 208.015 45.9767 210.068 47.19C212.121 48.3567 214.431 48.94 216.998 48.94ZM245.905 53V16.25H250.665V26.26L250.175 24.51C251.201 21.71 252.928 19.5867 255.355 18.14C257.781 16.6467 260.791 15.9 264.385 15.9V20.73C264.198 20.73 264.011 20.73 263.825 20.73C263.638 20.6833 263.451 20.66 263.265 20.66C259.391 20.66 256.358 21.85 254.165 24.23C251.971 26.5633 250.875 29.9 250.875 34.24V53H245.905ZM286.646 53.35C283.192 53.35 280.532 52.4167 278.666 50.55C276.799 48.6833 275.866 46.0467 275.866 42.64V8.13H280.836V42.36C280.836 44.5067 281.372 46.1633 282.446 47.33C283.566 48.4967 285.152 49.08 287.206 49.08C289.399 49.08 291.219 48.45 292.666 47.19L294.416 50.76C293.436 51.6467 292.246 52.3 290.846 52.72C289.492 53.14 288.092 53.35 286.646 53.35ZM269.286 20.38V16.25H292.036V20.38H269.286Z" fill="black"/>
</svg>
