<svg width="463" height="128" viewBox="0 0 463 128" fill="none" xmlns="http://www.w3.org/2000/svg">
<path d="M11.981 127.71C8.447 127.71 5.711 126.798 3.773 124.974C1.835 123.15 0.866001 120.642 0.866001 117.45V50.76C0.866001 47.454 1.778 44.946 3.602 43.236C5.54 41.412 8.219 40.5 11.639 40.5C15.059 40.5 17.738 41.412 19.676 43.236C21.614 45.06 22.583 47.568 22.583 50.76V55.719C30.677 45.573 41.735 40.5 55.757 40.5C66.701 40.5 75.308 43.977 81.578 50.931C87.962 57.771 91.154 67.119 91.154 78.975V117.45C91.154 120.642 90.128 123.15 88.076 124.974C86.024 126.798 83.288 127.71 79.868 127.71C76.334 127.71 73.598 126.798 71.66 124.974C69.722 123.15 68.753 120.642 68.753 117.45V78.975C68.753 72.477 67.157 67.404 63.965 63.756C60.773 60.108 56.327 58.284 50.627 58.284C41.963 58.284 35.237 60.849 30.449 65.979C25.661 70.995 23.267 78.063 23.267 87.183V117.45C23.267 120.642 22.241 123.15 20.189 124.974C18.137 126.798 15.401 127.71 11.981 127.71ZM140.271 127.71C133.203 127.71 126.933 126.513 121.461 124.119C116.103 121.725 111.885 118.419 108.807 114.201C105.843 109.869 104.361 104.91 104.361 99.324C104.361 90.888 107.838 84.162 114.792 79.146C121.86 74.13 131.379 71.622 143.349 71.622C153.723 71.622 162.045 73.845 168.315 78.291V74.187C168.315 68.829 166.662 64.725 163.356 61.875C160.05 59.025 155.262 57.6 148.992 57.6C139.644 57.6 131.607 59.595 124.881 63.585C122.031 65.181 119.58 65.979 117.528 65.979C115.02 65.979 112.797 64.839 110.859 62.559C109.605 60.963 108.978 59.31 108.978 57.6C108.978 54.75 110.46 52.242 113.424 50.076C117.528 47.112 122.715 44.775 128.985 43.065C135.255 41.355 141.867 40.5 148.821 40.5C162.045 40.5 172.419 43.521 179.943 49.563C187.581 55.491 191.4 63.699 191.4 74.187V118.134C191.4 121.098 190.374 123.435 188.322 125.145C186.384 126.855 183.705 127.71 180.285 127.71C176.751 127.71 174.015 126.912 172.077 125.316C170.139 123.72 169.17 121.44 169.17 118.476V116.595C162.672 124.005 153.039 127.71 140.271 127.71ZM145.572 111.978C152.754 111.978 158.34 110.895 162.33 108.729C166.434 106.449 168.486 103.314 168.486 99.324C168.486 95.562 166.434 92.541 162.33 90.261C158.226 87.981 152.754 86.841 145.914 86.841C139.758 86.841 134.97 87.924 131.55 90.09C128.244 92.256 126.591 95.334 126.591 99.324C126.591 103.314 128.244 106.449 131.55 108.729C134.856 110.895 139.53 111.978 145.572 111.978ZM272.956 5.958C275.806 7.78199 277.231 10.119 277.231 12.969C277.231 14.451 276.775 15.99 275.863 17.586C274.039 20.664 271.759 22.203 269.023 22.203C267.769 22.203 266.173 21.861 264.235 21.177C259.561 19.239 255.115 18.27 250.897 18.27C247.705 18.27 245.14 19.296 243.202 21.348C241.264 23.286 240.295 25.908 240.295 29.214V42.21H259.96C263.494 42.21 266.23 43.008 268.168 44.604C270.22 46.2 271.246 48.366 271.246 51.102C271.246 53.724 270.22 55.833 268.168 57.429C266.23 59.025 263.494 59.823 259.96 59.823H240.295V117.45C240.295 120.642 239.326 123.15 237.388 124.974C235.45 126.798 232.714 127.71 229.18 127.71C225.76 127.71 223.024 126.798 220.972 124.974C218.92 123.15 217.894 120.642 217.894 117.45V59.823H214.132C210.712 59.823 207.976 59.025 205.924 57.429C203.872 55.833 202.846 53.724 202.846 51.102C202.846 48.366 203.815 46.2 205.753 44.604C207.805 43.008 210.598 42.21 214.132 42.21H217.894V29.898C217.894 21.12 220.687 14.052 226.273 8.69399C231.973 3.22199 239.326 0.485995 248.332 0.485995C254.146 0.485995 258.934 0.941996 262.696 1.854C266.458 2.65199 269.878 4.01999 272.956 5.958ZM351.682 103.941C353.506 105.423 354.418 107.247 354.418 109.413C354.418 111.579 353.62 113.802 352.024 116.082C349.516 119.73 345.982 122.58 341.422 124.632C336.862 126.684 331.732 127.71 326.032 127.71C316.912 127.71 309.73 125.259 304.486 120.357C299.356 115.341 296.791 108.501 296.791 99.837V59.823H289.78C286.36 59.823 283.624 59.025 281.572 57.429C279.52 55.833 278.494 53.724 278.494 51.102C278.494 48.366 279.463 46.2 281.401 44.604C283.453 43.008 286.246 42.21 289.78 42.21H296.791V16.389C296.791 13.197 297.817 10.689 299.869 8.86499C301.921 7.04099 304.657 6.12899 308.077 6.12899C311.611 6.12899 314.347 7.04099 316.285 8.86499C318.223 10.689 319.192 13.197 319.192 16.389V42.21H335.608C339.142 42.21 341.878 43.008 343.816 44.604C345.868 46.2 346.894 48.366 346.894 51.102C346.894 53.724 345.868 55.833 343.816 57.429C341.878 59.025 339.142 59.823 335.608 59.823H319.192V101.718C319.192 104.226 319.933 106.221 321.415 107.703C323.011 109.185 325.12 109.926 327.742 109.926C329.794 109.926 331.561 109.641 333.043 109.071C334.639 108.387 336.235 107.304 337.831 105.822C340.795 102.972 343.531 101.547 346.039 101.547C347.863 101.547 349.744 102.345 351.682 103.941ZM411.652 127.71C401.734 127.71 392.899 125.943 385.147 122.409C377.509 118.761 371.524 113.631 367.192 107.019C362.86 100.407 360.694 92.769 360.694 84.105C360.694 75.441 362.86 67.803 367.192 61.191C371.524 54.579 377.509 49.506 385.147 45.972C392.899 42.324 401.734 40.5 411.652 40.5C421.57 40.5 430.348 42.324 437.986 45.972C445.738 49.506 451.78 54.579 456.112 61.191C460.444 67.803 462.61 75.441 462.61 84.105C462.61 92.769 460.444 100.407 456.112 107.019C451.78 113.631 445.738 118.761 437.986 122.409C430.348 125.943 421.57 127.71 411.652 127.71ZM411.652 109.926C420.43 109.926 427.327 107.646 432.343 103.086C437.473 98.526 440.038 92.199 440.038 84.105C440.038 76.011 437.473 69.684 432.343 65.124C427.327 60.564 420.43 58.284 411.652 58.284C402.874 58.284 395.92 60.564 390.79 65.124C385.774 69.684 383.266 76.011 383.266 84.105C383.266 92.199 385.774 98.526 390.79 103.086C395.92 107.646 402.874 109.926 411.652 109.926Z" fill="#090909"/>
</svg>
