<svg width="541" height="95" viewBox="0 0 541 95" fill="none" xmlns="http://www.w3.org/2000/svg">
<path d="M45.18 94.3C39.1133 94.3 34.0867 92.22 30.1 88.06C26.1133 83.8133 22.6033 76.8367 19.57 67.13L1.5 9.67C1.15333 8.62999 0.98 7.54666 0.98 6.42C0.98 2.60666 3.66667 0.699995 9.04 0.699995C11.7267 0.699995 13.7633 1.22 15.15 2.26C16.6233 3.3 17.7067 4.98999 18.4 7.32999L36.34 65.83C37.9867 71.1167 39.5033 74.93 40.89 77.27C42.2767 79.61 43.7067 80.78 45.18 80.78C46.6533 80.78 48.0833 79.61 49.47 77.27C50.8567 74.93 52.3733 71.1167 54.02 65.83L71.96 7.32999C72.6533 4.98999 73.6933 3.3 75.08 2.26C76.5533 1.22 78.6333 0.699995 81.32 0.699995C86.6933 0.699995 89.38 2.60666 89.38 6.42C89.38 7.54666 89.2067 8.62999 88.86 9.67L70.79 67.13C67.7567 76.8367 64.2467 83.8133 60.26 88.06C56.2733 92.22 51.2467 94.3 45.18 94.3ZM125.845 94.3C118.392 94.3 111.892 92.9567 106.345 90.27C100.798 87.5833 96.5083 83.8133 93.475 78.96C90.5283 74.02 89.055 68.2567 89.055 61.67C89.055 51.01 92.1317 42.7333 98.285 36.84C104.525 30.9467 113.278 28 124.545 28C131.478 28 137.588 29.0833 142.875 31.25C148.248 33.4167 152.408 36.45 155.355 40.35C158.388 44.1633 159.905 48.54 159.905 53.48C159.905 57.64 158.562 60.8467 155.875 63.1C153.275 65.3533 149.548 66.48 144.695 66.48H105.565C105.565 71.3333 107.255 75.0167 110.635 77.53C114.102 79.9567 119.172 81.17 125.845 81.17C132.865 81.17 138.845 79.61 143.785 76.49C146.558 74.7567 148.725 73.89 150.285 73.89C151.758 73.89 153.188 74.5833 154.575 75.97C156.048 77.4433 156.785 79.0467 156.785 80.78C156.785 82.86 155.918 84.5067 154.185 85.72C150.545 88.4933 146.298 90.6167 141.445 92.09C136.592 93.5633 131.392 94.3 125.845 94.3ZM139.495 54.52C140.968 54.52 142.008 54.26 142.615 53.74C143.222 53.1333 143.525 52.18 143.525 50.88C143.525 47.8467 141.792 45.4633 138.325 43.73C134.945 41.9967 130.352 41.13 124.545 41.13C118.738 41.13 114.145 42.3433 110.765 44.77C107.472 47.1967 105.825 50.4467 105.825 54.52H139.495ZM179.039 94.3C176.353 94.3 174.273 93.6067 172.799 92.22C171.326 90.8333 170.589 88.9267 170.589 86.5V35.8C170.589 33.2867 171.283 31.38 172.669 30.08C174.143 28.6933 176.179 28 178.779 28C181.379 28 183.416 28.6933 184.889 30.08C186.363 31.4667 187.099 33.3733 187.099 35.8V39.57C193.253 31.8567 201.659 28 212.319 28C220.639 28 227.183 30.6433 231.949 35.93C236.803 41.13 239.229 48.2367 239.229 57.25V86.5C239.229 88.9267 238.449 90.8333 236.889 92.22C235.329 93.6067 233.249 94.3 230.649 94.3C227.963 94.3 225.883 93.6067 224.409 92.22C222.936 90.8333 222.199 88.9267 222.199 86.5V57.25C222.199 52.31 220.986 48.4533 218.559 45.68C216.133 42.9067 212.753 41.52 208.419 41.52C201.833 41.52 196.719 43.47 193.079 47.37C189.439 51.1833 187.619 56.5567 187.619 63.49V86.5C187.619 88.9267 186.839 90.8333 185.279 92.22C183.719 93.6067 181.639 94.3 179.039 94.3ZM278.26 94.3C269.333 94.3 262.357 91.7433 257.33 86.63C252.39 81.43 249.92 74.2367 249.92 65.05V35.8C249.92 33.3733 250.7 31.4667 252.26 30.08C253.82 28.6933 255.9 28 258.5 28C261.187 28 263.267 28.6933 264.74 30.08C266.213 31.4667 266.95 33.3733 266.95 35.8V65.05C266.95 69.99 268.25 73.8467 270.85 76.62C273.537 79.3933 277.263 80.78 282.03 80.78C288.183 80.78 292.95 78.83 296.33 74.93C299.797 71.03 301.53 65.6567 301.53 58.81V35.8C301.53 33.3733 302.31 31.4667 303.87 30.08C305.43 28.6933 307.51 28 310.11 28C312.797 28 314.877 28.6933 316.35 30.08C317.823 31.4667 318.56 33.3733 318.56 35.8V86.5C318.56 89.0133 317.823 90.9633 316.35 92.35C314.963 93.65 312.97 94.3 310.37 94.3C307.77 94.3 305.733 93.6067 304.26 92.22C302.787 90.8333 302.05 88.9267 302.05 86.5V82.73C298.843 86.7167 295.29 89.6633 291.39 91.57C287.577 93.39 283.2 94.3 278.26 94.3ZM366.04 94.3C358.587 94.3 352.087 92.9567 346.54 90.27C340.994 87.5833 336.704 83.8133 333.67 78.96C330.724 74.02 329.25 68.2567 329.25 61.67C329.25 51.01 332.327 42.7333 338.48 36.84C344.72 30.9467 353.474 28 364.74 28C371.674 28 377.784 29.0833 383.07 31.25C388.444 33.4167 392.604 36.45 395.55 40.35C398.584 44.1633 400.1 48.54 400.1 53.48C400.1 57.64 398.757 60.8467 396.07 63.1C393.47 65.3533 389.744 66.48 384.89 66.48H345.76C345.76 71.3333 347.45 75.0167 350.83 77.53C354.297 79.9567 359.367 81.17 366.04 81.17C373.06 81.17 379.04 79.61 383.98 76.49C386.754 74.7567 388.92 73.89 390.48 73.89C391.954 73.89 393.384 74.5833 394.77 75.97C396.244 77.4433 396.98 79.0467 396.98 80.78C396.98 82.86 396.114 84.5067 394.38 85.72C390.74 88.4933 386.494 90.6167 381.64 92.09C376.787 93.5633 371.587 94.3 366.04 94.3ZM379.69 54.52C381.164 54.52 382.204 54.26 382.81 53.74C383.417 53.1333 383.72 52.18 383.72 50.88C383.72 47.8467 381.987 45.4633 378.52 43.73C375.14 41.9967 370.547 41.13 364.74 41.13C358.934 41.13 354.34 42.3433 350.96 44.77C347.667 47.1967 346.02 50.4467 346.02 54.52H379.69ZM446.275 94.3C438.821 94.3 432.321 92.9567 426.775 90.27C421.228 87.5833 416.938 83.8133 413.905 78.96C410.958 74.02 409.485 68.2567 409.485 61.67C409.485 51.01 412.561 42.7333 418.715 36.84C424.955 30.9467 433.708 28 444.975 28C451.908 28 458.018 29.0833 463.305 31.25C468.678 33.4167 472.838 36.45 475.785 40.35C478.818 44.1633 480.335 48.54 480.335 53.48C480.335 57.64 478.991 60.8467 476.305 63.1C473.705 65.3533 469.978 66.48 465.125 66.48H425.995C425.995 71.3333 427.685 75.0167 431.065 77.53C434.531 79.9567 439.601 81.17 446.275 81.17C453.295 81.17 459.275 79.61 464.215 76.49C466.988 74.7567 469.155 73.89 470.715 73.89C472.188 73.89 473.618 74.5833 475.005 75.97C476.478 77.4433 477.215 79.0467 477.215 80.78C477.215 82.86 476.348 84.5067 474.615 85.72C470.975 88.4933 466.728 90.6167 461.875 92.09C457.021 93.5633 451.821 94.3 446.275 94.3ZM459.925 54.52C461.398 54.52 462.438 54.26 463.045 53.74C463.651 53.1333 463.955 52.18 463.955 50.88C463.955 47.8467 462.221 45.4633 458.755 43.73C455.375 41.9967 450.781 41.13 444.975 41.13C439.168 41.13 434.575 42.3433 431.195 44.77C427.901 47.1967 426.255 50.4467 426.255 54.52H459.925ZM499.469 94.3C496.782 94.3 494.702 93.6067 493.229 92.22C491.756 90.8333 491.019 88.9267 491.019 86.5V35.8C491.019 33.2867 491.712 31.38 493.099 30.08C494.572 28.6933 496.609 28 499.209 28C501.809 28 503.846 28.6933 505.319 30.08C506.792 31.4667 507.529 33.3733 507.529 35.8V40.09C510.216 36.6233 513.336 33.98 516.889 32.16C520.529 30.2533 524.429 29.3 528.589 29.3H531.449C534.222 29.3 536.346 29.9067 537.819 31.12C539.379 32.2467 540.159 33.8933 540.159 36.06C540.159 38.2267 539.379 39.9167 537.819 41.13C536.346 42.2567 534.222 42.82 531.449 42.82H527.029C521.222 42.82 516.586 44.6833 513.119 48.41C509.739 52.05 508.049 57.0767 508.049 63.49V86.5C508.049 88.9267 507.269 90.8333 505.709 92.22C504.149 93.6067 502.069 94.3 499.469 94.3Z" fill="url(#paint0_linear_9_4)"/>
<defs>
<linearGradient id="paint0_linear_9_4" x1="31" y1="-13" x2="501.5" y2="64" gradientUnits="userSpaceOnUse">
<stop stop-color="#00B98E"/>
<stop offset="1" stop-color="#64FF61"/>
</linearGradient>
</defs>
</svg>
